<mxfile host="app.diagrams.net" modified="2023-07-26T11:36:24.022Z" agent="Mozilla/5.0 (Windows NT 10.0; Win64; x64) AppleWebKit/537.36 (KHTML, like Gecko) Chrome/114.0.0.0 Safari/537.36 Edg/114.0.1823.67" etag="qRiVRJIZm8hd1t4UEYh2" version="21.6.5" type="github">
  <diagram name="Page-1" id="2YBvvXClWsGukQMizWep">
    <mxGraphModel dx="1967" dy="632" grid="1" gridSize="10" guides="1" tooltips="1" connect="1" arrows="1" fold="1" page="1" pageScale="1" pageWidth="850" pageHeight="1100" math="0" shadow="0">
      <root>
        <mxCell id="0" />
        <mxCell id="1" parent="0" />
        <mxCell id="aM9ryv3xv72pqoxQDRHE-1" value="App 2w" style="shape=umlLifeline;perimeter=lifelinePerimeter;whiteSpace=wrap;html=1;container=0;dropTarget=0;collapsible=0;recursiveResize=0;outlineConnect=0;portConstraint=eastwest;newEdgeStyle={&quot;edgeStyle&quot;:&quot;elbowEdgeStyle&quot;,&quot;elbow&quot;:&quot;vertical&quot;,&quot;curved&quot;:0,&quot;rounded&quot;:0};" parent="1" vertex="1">
          <mxGeometry x="120" y="90" width="100" height="460" as="geometry" />
        </mxCell>
        <mxCell id="qNTtWaXiChQgTITrErw1-1" value="Actor" style="shape=umlActor;verticalLabelPosition=bottom;verticalAlign=top;html=1;outlineConnect=0;" vertex="1" parent="1">
          <mxGeometry x="30" y="100" width="30" height="60" as="geometry" />
        </mxCell>
        <mxCell id="aM9ryv3xv72pqoxQDRHE-3" value="Open App" style="html=1;verticalAlign=bottom;startArrow=oval;endArrow=block;startSize=8;edgeStyle=elbowEdgeStyle;elbow=vertical;curved=0;rounded=0;" parent="1" edge="1">
          <mxGeometry relative="1" as="geometry">
            <mxPoint x="70" y="160.28" as="sourcePoint" />
            <mxPoint x="160" y="160" as="targetPoint" />
          </mxGeometry>
        </mxCell>
        <mxCell id="qNTtWaXiChQgTITrErw1-2" value="" style="rounded=1;whiteSpace=wrap;html=1;rotation=90;" vertex="1" parent="1">
          <mxGeometry x="-5" y="330" width="350" height="10" as="geometry" />
        </mxCell>
        <mxCell id="qNTtWaXiChQgTITrErw1-3" value="Camera" style="shape=umlLifeline;perimeter=lifelinePerimeter;whiteSpace=wrap;html=1;container=0;dropTarget=0;collapsible=0;recursiveResize=0;outlineConnect=0;portConstraint=eastwest;newEdgeStyle={&quot;edgeStyle&quot;:&quot;elbowEdgeStyle&quot;,&quot;elbow&quot;:&quot;vertical&quot;,&quot;curved&quot;:0,&quot;rounded&quot;:0};" vertex="1" parent="1">
          <mxGeometry x="614.24" y="90" width="100" height="460" as="geometry" />
        </mxCell>
        <mxCell id="qNTtWaXiChQgTITrErw1-5" value="" style="endArrow=classic;html=1;rounded=0;" edge="1" parent="1" target="qNTtWaXiChQgTITrErw1-3">
          <mxGeometry width="50" height="50" relative="1" as="geometry">
            <mxPoint x="580" y="230" as="sourcePoint" />
            <mxPoint x="230" y="180" as="targetPoint" />
          </mxGeometry>
        </mxCell>
        <mxCell id="qNTtWaXiChQgTITrErw1-6" value="Open Camera" style="edgeLabel;html=1;align=center;verticalAlign=middle;resizable=0;points=[];" vertex="1" connectable="0" parent="qNTtWaXiChQgTITrErw1-5">
          <mxGeometry x="0.0488" y="-1" relative="1" as="geometry">
            <mxPoint x="-2" y="-11" as="offset" />
          </mxGeometry>
        </mxCell>
        <mxCell id="qNTtWaXiChQgTITrErw1-7" value="Camera Displayer" style="shape=umlLifeline;perimeter=lifelinePerimeter;whiteSpace=wrap;html=1;container=0;dropTarget=0;collapsible=0;recursiveResize=0;outlineConnect=0;portConstraint=eastwest;newEdgeStyle={&quot;edgeStyle&quot;:&quot;elbowEdgeStyle&quot;,&quot;elbow&quot;:&quot;vertical&quot;,&quot;curved&quot;:0,&quot;rounded&quot;:0};" vertex="1" parent="1">
          <mxGeometry x="744.24" y="90" width="100" height="460" as="geometry" />
        </mxCell>
        <mxCell id="qNTtWaXiChQgTITrErw1-8" value="" style="endArrow=classic;html=1;rounded=0;" edge="1" parent="1">
          <mxGeometry width="50" height="50" relative="1" as="geometry">
            <mxPoint x="669.24" y="250" as="sourcePoint" />
            <mxPoint x="789.24" y="250" as="targetPoint" />
          </mxGeometry>
        </mxCell>
        <mxCell id="qNTtWaXiChQgTITrErw1-9" value="emit Start()" style="edgeLabel;html=1;align=center;verticalAlign=middle;resizable=0;points=[];" vertex="1" connectable="0" parent="qNTtWaXiChQgTITrErw1-8">
          <mxGeometry x="0.0488" y="-1" relative="1" as="geometry">
            <mxPoint x="-2" y="-11" as="offset" />
          </mxGeometry>
        </mxCell>
        <mxCell id="qNTtWaXiChQgTITrErw1-22" value="Camera_Handler" style="swimlane;fontStyle=1;align=center;verticalAlign=top;childLayout=stackLayout;horizontal=1;startSize=26;horizontalStack=0;resizeParent=1;resizeParentMax=0;resizeLast=0;collapsible=1;marginBottom=0;whiteSpace=wrap;html=1;" vertex="1" parent="1">
          <mxGeometry x="215" y="650" width="140" height="150" as="geometry" />
        </mxCell>
        <mxCell id="qNTtWaXiChQgTITrErw1-23" value="SIGNAL:&lt;br&gt;&lt;span style=&quot;white-space: pre;&quot;&gt;&#x9;&lt;/span&gt;+ sentFrame()&lt;span style=&quot;white-space: pre;&quot;&gt;&#x9;&lt;/span&gt;" style="text;strokeColor=none;fillColor=none;align=left;verticalAlign=top;spacingLeft=4;spacingRight=4;overflow=hidden;rotatable=0;points=[[0,0.5],[1,0.5]];portConstraint=eastwest;whiteSpace=wrap;html=1;" vertex="1" parent="qNTtWaXiChQgTITrErw1-22">
          <mxGeometry y="26" width="140" height="54" as="geometry" />
        </mxCell>
        <mxCell id="qNTtWaXiChQgTITrErw1-24" value="" style="line;strokeWidth=1;fillColor=none;align=left;verticalAlign=middle;spacingTop=-1;spacingLeft=3;spacingRight=3;rotatable=0;labelPosition=right;points=[];portConstraint=eastwest;strokeColor=inherit;" vertex="1" parent="qNTtWaXiChQgTITrErw1-22">
          <mxGeometry y="80" width="140" height="8" as="geometry" />
        </mxCell>
        <mxCell id="qNTtWaXiChQgTITrErw1-25" value="SLOT:&lt;br&gt;&#x9;&lt;span style=&quot;white-space: pre;&quot;&gt;&#x9;&lt;/span&gt;+ receiveFrame()" style="text;strokeColor=none;fillColor=none;align=left;verticalAlign=top;spacingLeft=4;spacingRight=4;overflow=hidden;rotatable=0;points=[[0,0.5],[1,0.5]];portConstraint=eastwest;whiteSpace=wrap;html=1;" vertex="1" parent="qNTtWaXiChQgTITrErw1-22">
          <mxGeometry y="88" width="140" height="62" as="geometry" />
        </mxCell>
        <mxCell id="qNTtWaXiChQgTITrErw1-26" value="Camera_Displayer" style="swimlane;fontStyle=1;align=center;verticalAlign=top;childLayout=stackLayout;horizontal=1;startSize=26;horizontalStack=0;resizeParent=1;resizeParentMax=0;resizeLast=0;collapsible=1;marginBottom=0;whiteSpace=wrap;html=1;" vertex="1" parent="1">
          <mxGeometry x="475" y="650" width="130" height="150" as="geometry" />
        </mxCell>
        <mxCell id="qNTtWaXiChQgTITrErw1-27" value="SIGNAL:" style="text;strokeColor=none;fillColor=none;align=left;verticalAlign=top;spacingLeft=4;spacingRight=4;overflow=hidden;rotatable=0;points=[[0,0.5],[1,0.5]];portConstraint=eastwest;whiteSpace=wrap;html=1;" vertex="1" parent="qNTtWaXiChQgTITrErw1-26">
          <mxGeometry y="26" width="130" height="54" as="geometry" />
        </mxCell>
        <mxCell id="qNTtWaXiChQgTITrErw1-28" value="" style="line;strokeWidth=1;fillColor=none;align=left;verticalAlign=middle;spacingTop=-1;spacingLeft=3;spacingRight=3;rotatable=0;labelPosition=right;points=[];portConstraint=eastwest;strokeColor=inherit;" vertex="1" parent="qNTtWaXiChQgTITrErw1-26">
          <mxGeometry y="80" width="130" height="8" as="geometry" />
        </mxCell>
        <mxCell id="qNTtWaXiChQgTITrErw1-29" value="SLOT:&lt;br&gt;&lt;span style=&quot;white-space: pre;&quot;&gt;&#x9;&lt;/span&gt;+ receiveFrame()" style="text;strokeColor=none;fillColor=none;align=left;verticalAlign=top;spacingLeft=4;spacingRight=4;overflow=hidden;rotatable=0;points=[[0,0.5],[1,0.5]];portConstraint=eastwest;whiteSpace=wrap;html=1;" vertex="1" parent="qNTtWaXiChQgTITrErw1-26">
          <mxGeometry y="88" width="130" height="62" as="geometry" />
        </mxCell>
        <mxCell id="qNTtWaXiChQgTITrErw1-30" value="uvc_thread" style="swimlane;fontStyle=1;align=center;verticalAlign=top;childLayout=stackLayout;horizontal=1;startSize=26;horizontalStack=0;resizeParent=1;resizeParentMax=0;resizeLast=0;collapsible=1;marginBottom=0;whiteSpace=wrap;html=1;" vertex="1" parent="1">
          <mxGeometry x="-10" y="650" width="120" height="150" as="geometry" />
        </mxCell>
        <mxCell id="qNTtWaXiChQgTITrErw1-31" value="SIGNAL:&lt;br&gt;&lt;span style=&quot;white-space: pre;&quot;&gt;&#x9;&lt;/span&gt;+ gotFrame()" style="text;strokeColor=none;fillColor=none;align=left;verticalAlign=top;spacingLeft=4;spacingRight=4;overflow=hidden;rotatable=0;points=[[0,0.5],[1,0.5]];portConstraint=eastwest;whiteSpace=wrap;html=1;" vertex="1" parent="qNTtWaXiChQgTITrErw1-30">
          <mxGeometry y="26" width="120" height="54" as="geometry" />
        </mxCell>
        <mxCell id="qNTtWaXiChQgTITrErw1-32" value="" style="line;strokeWidth=1;fillColor=none;align=left;verticalAlign=middle;spacingTop=-1;spacingLeft=3;spacingRight=3;rotatable=0;labelPosition=right;points=[];portConstraint=eastwest;strokeColor=inherit;" vertex="1" parent="qNTtWaXiChQgTITrErw1-30">
          <mxGeometry y="80" width="120" height="8" as="geometry" />
        </mxCell>
        <mxCell id="qNTtWaXiChQgTITrErw1-33" value="SLOT:" style="text;strokeColor=none;fillColor=none;align=left;verticalAlign=top;spacingLeft=4;spacingRight=4;overflow=hidden;rotatable=0;points=[[0,0.5],[1,0.5]];portConstraint=eastwest;whiteSpace=wrap;html=1;" vertex="1" parent="qNTtWaXiChQgTITrErw1-30">
          <mxGeometry y="88" width="120" height="62" as="geometry" />
        </mxCell>
        <mxCell id="qNTtWaXiChQgTITrErw1-34" value="" style="endArrow=classic;html=1;rounded=0;exitX=1;exitY=0.5;exitDx=0;exitDy=0;entryX=0;entryY=0.5;entryDx=0;entryDy=0;" edge="1" parent="1" source="qNTtWaXiChQgTITrErw1-23" target="qNTtWaXiChQgTITrErw1-29">
          <mxGeometry width="50" height="50" relative="1" as="geometry">
            <mxPoint x="405" y="890" as="sourcePoint" />
            <mxPoint x="465" y="770" as="targetPoint" />
            <Array as="points">
              <mxPoint x="415" y="703" />
              <mxPoint x="415" y="769" />
            </Array>
          </mxGeometry>
        </mxCell>
        <mxCell id="qNTtWaXiChQgTITrErw1-36" value="" style="endArrow=classic;html=1;rounded=0;exitX=1;exitY=0.5;exitDx=0;exitDy=0;" edge="1" parent="1">
          <mxGeometry width="50" height="50" relative="1" as="geometry">
            <mxPoint x="110" y="700" as="sourcePoint" />
            <mxPoint x="210" y="770" as="targetPoint" />
            <Array as="points">
              <mxPoint x="170" y="700" />
              <mxPoint x="170" y="770" />
            </Array>
          </mxGeometry>
        </mxCell>
        <mxCell id="qNTtWaXiChQgTITrErw1-37" value="uvc_thread::start()" style="rounded=0;whiteSpace=wrap;html=1;" vertex="1" parent="1">
          <mxGeometry x="140" y="860" width="120" height="40" as="geometry" />
        </mxCell>
        <mxCell id="qNTtWaXiChQgTITrErw1-39" value="uvc_thread::run()" style="rounded=0;whiteSpace=wrap;html=1;" vertex="1" parent="1">
          <mxGeometry x="140" y="940" width="120" height="40" as="geometry" />
        </mxCell>
        <mxCell id="qNTtWaXiChQgTITrErw1-42" value="" style="endArrow=classic;html=1;rounded=0;exitX=0.5;exitY=1;exitDx=0;exitDy=0;entryX=0.5;entryY=0;entryDx=0;entryDy=0;" edge="1" parent="1" source="qNTtWaXiChQgTITrErw1-37" target="qNTtWaXiChQgTITrErw1-39">
          <mxGeometry width="50" height="50" relative="1" as="geometry">
            <mxPoint x="-60" y="1010" as="sourcePoint" />
            <mxPoint x="-10" y="960" as="targetPoint" />
          </mxGeometry>
        </mxCell>
        <mxCell id="qNTtWaXiChQgTITrErw1-44" value="uvc_thread::cb()" style="rounded=0;whiteSpace=wrap;html=1;" vertex="1" parent="1">
          <mxGeometry x="300" y="1040" width="120" height="40" as="geometry" />
        </mxCell>
        <mxCell id="qNTtWaXiChQgTITrErw1-45" value="" style="endArrow=classic;html=1;rounded=0;exitX=0.5;exitY=1;exitDx=0;exitDy=0;entryX=0.5;entryY=0;entryDx=0;entryDy=0;" edge="1" parent="1" target="qNTtWaXiChQgTITrErw1-46">
          <mxGeometry width="50" height="50" relative="1" as="geometry">
            <mxPoint x="200" y="980" as="sourcePoint" />
            <mxPoint x="-10" y="1050" as="targetPoint" />
          </mxGeometry>
        </mxCell>
        <mxCell id="qNTtWaXiChQgTITrErw1-46" value="" style="rhombus;whiteSpace=wrap;html=1;" vertex="1" parent="1">
          <mxGeometry x="170" y="1040" width="60" height="40" as="geometry" />
        </mxCell>
        <mxCell id="qNTtWaXiChQgTITrErw1-47" value="" style="endArrow=classic;html=1;rounded=0;exitX=1;exitY=0.5;exitDx=0;exitDy=0;entryX=0;entryY=0.5;entryDx=0;entryDy=0;" edge="1" parent="1" source="qNTtWaXiChQgTITrErw1-46" target="qNTtWaXiChQgTITrErw1-44">
          <mxGeometry width="50" height="50" relative="1" as="geometry">
            <mxPoint x="260" y="1060.0000000000002" as="sourcePoint" />
            <mxPoint x="260" y="1090" as="targetPoint" />
          </mxGeometry>
        </mxCell>
        <mxCell id="qNTtWaXiChQgTITrErw1-50" value="true" style="edgeLabel;html=1;align=center;verticalAlign=middle;resizable=0;points=[];" vertex="1" connectable="0" parent="qNTtWaXiChQgTITrErw1-47">
          <mxGeometry x="-0.325" y="-1" relative="1" as="geometry">
            <mxPoint y="-11" as="offset" />
          </mxGeometry>
        </mxCell>
        <mxCell id="qNTtWaXiChQgTITrErw1-48" value="" style="endArrow=classic;html=1;rounded=0;exitX=0.5;exitY=0;exitDx=0;exitDy=0;" edge="1" parent="1" source="qNTtWaXiChQgTITrErw1-44">
          <mxGeometry width="50" height="50" relative="1" as="geometry">
            <mxPoint x="340" y="1010" as="sourcePoint" />
            <mxPoint x="200" y="1010" as="targetPoint" />
            <Array as="points">
              <mxPoint x="360" y="1010" />
            </Array>
          </mxGeometry>
        </mxCell>
        <mxCell id="qNTtWaXiChQgTITrErw1-49" value="" style="endArrow=classic;html=1;rounded=0;exitX=0.5;exitY=1;exitDx=0;exitDy=0;entryX=0.5;entryY=0;entryDx=0;entryDy=0;" edge="1" parent="1" target="qNTtWaXiChQgTITrErw1-54">
          <mxGeometry width="50" height="50" relative="1" as="geometry">
            <mxPoint x="359.58" y="1080" as="sourcePoint" />
            <mxPoint x="360" y="1130" as="targetPoint" />
          </mxGeometry>
        </mxCell>
        <mxCell id="qNTtWaXiChQgTITrErw1-51" value="" style="endArrow=classic;html=1;rounded=0;exitX=0.5;exitY=1;exitDx=0;exitDy=0;" edge="1" parent="1">
          <mxGeometry width="50" height="50" relative="1" as="geometry">
            <mxPoint x="199.58" y="1080" as="sourcePoint" />
            <mxPoint x="200" y="1130" as="targetPoint" />
          </mxGeometry>
        </mxCell>
        <mxCell id="qNTtWaXiChQgTITrErw1-52" value="false" style="edgeLabel;html=1;align=center;verticalAlign=middle;resizable=0;points=[];" vertex="1" connectable="0" parent="qNTtWaXiChQgTITrErw1-51">
          <mxGeometry x="-0.3998" relative="1" as="geometry">
            <mxPoint as="offset" />
          </mxGeometry>
        </mxCell>
        <mxCell id="qNTtWaXiChQgTITrErw1-54" value="camera_handler::receiveFrame()&amp;nbsp;" style="rounded=0;whiteSpace=wrap;html=1;" vertex="1" parent="1">
          <mxGeometry x="265" y="1140" width="190" height="40" as="geometry" />
        </mxCell>
        <mxCell id="qNTtWaXiChQgTITrErw1-56" value="emit gotFrame()" style="text;html=1;strokeColor=none;fillColor=none;align=center;verticalAlign=middle;whiteSpace=wrap;rounded=0;" vertex="1" parent="1">
          <mxGeometry x="365" y="1100" width="90" height="30" as="geometry" />
        </mxCell>
        <mxCell id="qNTtWaXiChQgTITrErw1-58" value="Exit program" style="rounded=0;whiteSpace=wrap;html=1;" vertex="1" parent="1">
          <mxGeometry x="155" y="1130" width="90" height="30" as="geometry" />
        </mxCell>
        <mxCell id="qNTtWaXiChQgTITrErw1-59" value="" style="endArrow=classic;html=1;rounded=0;exitX=0.5;exitY=1;exitDx=0;exitDy=0;entryX=0.5;entryY=0;entryDx=0;entryDy=0;" edge="1" parent="1">
          <mxGeometry width="50" height="50" relative="1" as="geometry">
            <mxPoint x="359.58" y="1180" as="sourcePoint" />
            <mxPoint x="360" y="1240" as="targetPoint" />
          </mxGeometry>
        </mxCell>
        <mxCell id="qNTtWaXiChQgTITrErw1-60" value="emit sentFrame()" style="text;html=1;strokeColor=none;fillColor=none;align=center;verticalAlign=middle;whiteSpace=wrap;rounded=0;" vertex="1" parent="1">
          <mxGeometry x="365" y="1200" width="105" height="30" as="geometry" />
        </mxCell>
        <mxCell id="qNTtWaXiChQgTITrErw1-62" style="edgeStyle=orthogonalEdgeStyle;rounded=0;orthogonalLoop=1;jettySize=auto;html=1;" edge="1" parent="1" source="qNTtWaXiChQgTITrErw1-61">
          <mxGeometry relative="1" as="geometry">
            <mxPoint x="360" y="1340.0000000000002" as="targetPoint" />
          </mxGeometry>
        </mxCell>
        <mxCell id="qNTtWaXiChQgTITrErw1-61" value="camera_displayer::receiveFrame()&amp;nbsp;" style="rounded=0;whiteSpace=wrap;html=1;" vertex="1" parent="1">
          <mxGeometry x="265" y="1240" width="190" height="40" as="geometry" />
        </mxCell>
        <mxCell id="qNTtWaXiChQgTITrErw1-63" value="" style="sketch=0;pointerEvents=1;shadow=0;dashed=0;html=1;strokeColor=none;fillColor=#505050;labelPosition=center;verticalLabelPosition=bottom;verticalAlign=top;outlineConnect=0;align=center;shape=mxgraph.office.devices.tv;" vertex="1" parent="1">
          <mxGeometry x="302.5" y="1340" width="115" height="70" as="geometry" />
        </mxCell>
        <mxCell id="qNTtWaXiChQgTITrErw1-64" value="GuiApplication" style="shape=umlLifeline;perimeter=lifelinePerimeter;whiteSpace=wrap;html=1;container=0;dropTarget=0;collapsible=0;recursiveResize=0;outlineConnect=0;portConstraint=eastwest;newEdgeStyle={&quot;edgeStyle&quot;:&quot;elbowEdgeStyle&quot;,&quot;elbow&quot;:&quot;vertical&quot;,&quot;curved&quot;:0,&quot;rounded&quot;:0};" vertex="1" parent="1">
          <mxGeometry x="265" y="90" width="100" height="460" as="geometry" />
        </mxCell>
        <mxCell id="qNTtWaXiChQgTITrErw1-65" value="" style="endArrow=classic;html=1;rounded=0;" edge="1" parent="1" target="qNTtWaXiChQgTITrErw1-64">
          <mxGeometry width="50" height="50" relative="1" as="geometry">
            <mxPoint x="176" y="170" as="sourcePoint" />
            <mxPoint x="260" y="170" as="targetPoint" />
          </mxGeometry>
        </mxCell>
        <mxCell id="qNTtWaXiChQgTITrErw1-66" value="Constructor" style="edgeLabel;html=1;align=center;verticalAlign=middle;resizable=0;points=[];" vertex="1" connectable="0" parent="qNTtWaXiChQgTITrErw1-65">
          <mxGeometry x="0.0488" y="-1" relative="1" as="geometry">
            <mxPoint x="-2" y="-11" as="offset" />
          </mxGeometry>
        </mxCell>
      </root>
    </mxGraphModel>
  </diagram>
</mxfile>
